<svg xmlns="http://www.w3.org/2000/svg" width="256" height="256" viewBox="0 0 256 256">
<defs>
<clipPath id="inner"><circle cx="128" cy="128" r="84"/></clipPath>
<linearGradient id="wave" gradientUnits="userSpaceOnUse" x1="44" y1="0" x2="212" y2="0"><stop offset="0%" stop-color="#9d8cff" stop-opacity="1"/><stop offset="50%" stop-color="#5cb4ff" stop-opacity="1"/><stop offset="100%" stop-color="#6fe0e6" stop-opacity="1"/></linearGradient>
<linearGradient id="area" gradientUnits="userSpaceOnUse" x1="44" y1="0" x2="212" y2="0"><stop offset="0%" stop-color="#9d8cff" stop-opacity="0.38"/><stop offset="50%" stop-color="#5cb4ff" stop-opacity="0.38"/><stop offset="100%" stop-color="#6fe0e6" stop-opacity="0.38"/></linearGradient>
<linearGradient id="ring" gradientUnits="userSpaceOnUse" x1="0" y1="44" x2="0" y2="212"><stop offset="0%" stop-color="#ffe6b0" stop-opacity="1"/><stop offset="100%" stop-color="#ff9f9f" stop-opacity="1"/></linearGradient>
</defs>
<rect x="8" y="8" width="240" height="240" rx="56" fill="#161b38"/>
<circle cx="128" cy="128" r="84" fill="#232a52"/>
<g clip-path="url(#inner)">
<path d="M44,176 C53.3,176 62.7,173.3 72,168 C81.3,162.7 90.7,132 100,132 C109.3,132 118.7,150 128,150 C137.3,150 146.7,112 156,112 C165.3,112 174.7,131.3 184,140 C193.3,148.7 202.7,164 212,164 L212,212 L44,212 Z" fill="url(#area)"/>
<path d="M44,176 C53.3,176 62.7,173.3 72,168 C81.3,162.7 90.7,132 100,132 C109.3,132 118.7,150 128,150 C137.3,150 146.7,112 156,112 C165.3,112 174.7,131.3 184,140 C193.3,148.7 202.7,164 212,164" fill="none" stroke="url(#wave)" stroke-width="9" stroke-linecap="round"/>
</g>
<circle cx="128" cy="128" r="84" fill="none" stroke="url(#ring)" stroke-width="14"/>
<path d="M128,58 Q136.8,83.2 162,92 Q136.8,100.8 128,126 Q119.2,100.8 94,92 Q119.2,83.2 128,58 Z" fill="#ffe6b0"/>
</svg>
